<?xml version="1.0" encoding="UTF-8"?>
<svg xmlns="http://www.w3.org/2000/svg" viewBox="0 0 1100 905" width="1100" height="905">
  <defs>
    <style>
      text { font-family: 'Segoe UI', Arial, sans-serif; }
      .title { font-size: 16px; font-weight: bold; fill: #1a1a2e; }
      .label { font-size: 12px; fill: #333; }
      .label-bold { font-size: 12px; fill: #333; font-weight: bold; }
      .small { font-size: 10px; fill: #666; }
      .white-text { font-size: 11px; fill: #fff; font-weight: bold; }
      .header-text { font-size: 14px; font-weight: bold; fill: #fff; }
    </style>
    <marker id="arr" markerWidth="8" markerHeight="6" refX="8" refY="3" orient="auto">
      <polygon points="0 0, 8 3, 0 6" fill="#555" />
    </marker>
    <clipPath id="clip-all"><rect x="0" y="0" width="1100" height="905"/></clipPath>
  </defs>

  <g clip-path="url(#clip-all)">
  <rect x="0" y="0" width="1100" height="905" rx="12" fill="#f9fafb" stroke="#e0e0e0" stroke-width="1"/>
  <text x="550" y="35" text-anchor="middle" class="title" style="font-size:18px;">Workspace Environment Architecture</text>

  <!-- Environment column headers -->
  <rect x="290" y="55" width="220" height="32" rx="6" fill="#0078D4"/>
  <text x="400" y="76" text-anchor="middle" class="header-text">DEV</text>
  <rect x="540" y="55" width="220" height="32" rx="6" fill="#ED8B00"/>
  <text x="650" y="76" text-anchor="middle" class="header-text">TEST</text>
  <rect x="790" y="55" width="220" height="32" rx="6" fill="#107C10"/>
  <text x="900" y="76" text-anchor="middle" class="header-text">PROD</text>

  <!-- DATA & CONNECTIONS category -->
  <rect x="30" y="95" width="230" height="22" rx="4" fill="#E3F2FD"/>
  <text x="145" y="111" text-anchor="middle" class="label-bold" style="fill:#0078D4; font-size:11px">DATA &amp; CONNECTIONS</text>

  <!-- Row 1: Epic - shared -->
  <rect x="30" y="122" width="230" height="58" rx="8" fill="#E3F2FD" stroke="#0078D4" stroke-width="1.5"/>
  <text x="145" y="146" text-anchor="middle" class="label-bold" style="fill:#0078D4">Epic - shared</text>
  <text x="145" y="162" text-anchor="middle" class="small">Lakehouses, Pipelines, Dataflows</text>

  <rect x="290" y="122" width="220" height="58" rx="8" fill="#fff" stroke="#0078D4" stroke-width="1.5"/>
  <text x="400" y="143" text-anchor="middle" class="label" style="font-size:10px">Epic - shared</text>
  <text x="400" y="157" text-anchor="middle" class="label-bold" style="font-size:10px; fill:#0078D4">- Dev - workspace</text>
  <text x="400" y="173" text-anchor="middle" class="small" style="fill:#0078D4">✓ Git Connected (main)</text>

  <rect x="540" y="122" width="220" height="58" rx="8" fill="#fff" stroke="#ED8B00" stroke-width="1.5"/>
  <text x="650" y="143" text-anchor="middle" class="label" style="font-size:10px">Epic - shared</text>
  <text x="650" y="157" text-anchor="middle" class="label-bold" style="font-size:10px; fill:#ED8B00">- Test - workspace</text>
  <text x="650" y="173" text-anchor="middle" class="small" style="fill:#ED8B00">← Deployment Pipeline</text>

  <rect x="790" y="122" width="220" height="58" rx="8" fill="#fff" stroke="#107C10" stroke-width="1.5"/>
  <text x="900" y="143" text-anchor="middle" class="label" style="font-size:10px">Epic - shared</text>
  <text x="900" y="157" text-anchor="middle" class="label-bold" style="font-size:10px; fill:#107C10">- Prod - workspace</text>
  <text x="900" y="173" text-anchor="middle" class="small" style="fill:#107C10">← Deployment Pipeline</text>

  <line x1="515" y1="151" x2="535" y2="151" stroke="#555" stroke-width="2" marker-end="url(#arr)"/>
  <line x1="765" y1="151" x2="785" y2="151" stroke="#555" stroke-width="2" marker-end="url(#arr)"/>

  <!-- Row 2: SQL - Shared -->
  <rect x="30" y="192" width="230" height="58" rx="8" fill="#E8EAF6" stroke="#3949AB" stroke-width="1.5"/>
  <text x="145" y="216" text-anchor="middle" class="label-bold" style="fill:#3949AB">SQL - Shared</text>
  <text x="145" y="232" text-anchor="middle" class="small">SQL Databases, Warehouses</text>

  <rect x="290" y="192" width="220" height="58" rx="8" fill="#fff" stroke="#0078D4" stroke-width="1.5"/>
  <text x="400" y="213" text-anchor="middle" class="label" style="font-size:10px">SQL - Shared</text>
  <text x="400" y="227" text-anchor="middle" class="label-bold" style="font-size:10px; fill:#0078D4">- Dev - workspace</text>
  <text x="400" y="243" text-anchor="middle" class="small" style="fill:#0078D4">✓ Git Connected (main)</text>

  <rect x="540" y="192" width="220" height="58" rx="8" fill="#fff" stroke="#ED8B00" stroke-width="1.5"/>
  <text x="650" y="213" text-anchor="middle" class="label" style="font-size:10px">SQL - Shared</text>
  <text x="650" y="227" text-anchor="middle" class="label-bold" style="font-size:10px; fill:#ED8B00">- Test - workspace</text>
  <text x="650" y="243" text-anchor="middle" class="small" style="fill:#ED8B00">← Deployment Pipeline</text>

  <rect x="790" y="192" width="220" height="58" rx="8" fill="#fff" stroke="#107C10" stroke-width="1.5"/>
  <text x="900" y="213" text-anchor="middle" class="label" style="font-size:10px">SQL - Shared</text>
  <text x="900" y="227" text-anchor="middle" class="label-bold" style="font-size:10px; fill:#107C10">- Prod - workspace</text>
  <text x="900" y="243" text-anchor="middle" class="small" style="fill:#107C10">← Deployment Pipeline</text>

  <line x1="515" y1="221" x2="535" y2="221" stroke="#555" stroke-width="2" marker-end="url(#arr)"/>
  <line x1="765" y1="221" x2="785" y2="221" stroke="#555" stroke-width="2" marker-end="url(#arr)"/>

  <!-- VISUALIZATION category -->
  <rect x="30" y="265" width="230" height="22" rx="4" fill="#FFF3E0"/>
  <text x="145" y="281" text-anchor="middle" class="label-bold" style="fill:#E8590C; font-size:11px">VISUALIZATION</text>

  <!-- Row 3: Blood Utilization -->
  <rect x="30" y="295" width="230" height="58" rx="8" fill="#FFF3E0" stroke="#E8590C" stroke-width="1.5"/>
  <text x="145" y="319" text-anchor="middle" class="label-bold" style="fill:#E8590C">Blood Utilization</text>
  <text x="145" y="335" text-anchor="middle" class="small">Reports, Semantic Models</text>

  <rect x="290" y="295" width="220" height="58" rx="8" fill="#fff" stroke="#0078D4" stroke-width="1.5"/>
  <text x="400" y="316" text-anchor="middle" class="label" style="font-size:10px">Blood Utilization</text>
  <text x="400" y="330" text-anchor="middle" class="label-bold" style="font-size:10px; fill:#0078D4">- Dev - workspace</text>
  <text x="400" y="346" text-anchor="middle" class="small" style="fill:#0078D4">✓ Git Connected (main)</text>

  <rect x="540" y="295" width="220" height="58" rx="8" fill="#fff" stroke="#ED8B00" stroke-width="1.5"/>
  <text x="650" y="316" text-anchor="middle" class="label" style="font-size:10px">Blood Utilization</text>
  <text x="650" y="330" text-anchor="middle" class="label-bold" style="font-size:10px; fill:#ED8B00">- Test - workspace</text>
  <text x="650" y="346" text-anchor="middle" class="small" style="fill:#ED8B00">← Deployment Pipeline</text>

  <rect x="790" y="295" width="220" height="58" rx="8" fill="#fff" stroke="#107C10" stroke-width="1.5"/>
  <text x="900" y="316" text-anchor="middle" class="label" style="font-size:10px">Blood Utilization</text>
  <text x="900" y="330" text-anchor="middle" class="label-bold" style="font-size:10px; fill:#107C10">- Prod - workspace</text>
  <text x="900" y="346" text-anchor="middle" class="small" style="fill:#107C10">← Deployment Pipeline</text>

  <line x1="515" y1="324" x2="535" y2="324" stroke="#555" stroke-width="2" marker-end="url(#arr)"/>
  <line x1="765" y1="324" x2="785" y2="324" stroke="#555" stroke-width="2" marker-end="url(#arr)"/>

  <!-- Row 4: OR Scheduling -->
  <rect x="30" y="365" width="230" height="58" rx="8" fill="#F3E5F5" stroke="#7B2D8E" stroke-width="1.5"/>
  <text x="145" y="389" text-anchor="middle" class="label-bold" style="fill:#7B2D8E">OR Scheduling</text>
  <text x="145" y="405" text-anchor="middle" class="small">Reports, Semantic Models</text>

  <rect x="290" y="365" width="220" height="58" rx="8" fill="#fff" stroke="#0078D4" stroke-width="1.5"/>
  <text x="400" y="386" text-anchor="middle" class="label" style="font-size:10px">OR Scheduling</text>
  <text x="400" y="400" text-anchor="middle" class="label-bold" style="font-size:10px; fill:#0078D4">- Dev - workspace</text>
  <text x="400" y="416" text-anchor="middle" class="small" style="fill:#0078D4">✓ Git Connected (main)</text>

  <rect x="540" y="365" width="220" height="58" rx="8" fill="#fff" stroke="#ED8B00" stroke-width="1.5"/>
  <text x="650" y="386" text-anchor="middle" class="label" style="font-size:10px">OR Scheduling</text>
  <text x="650" y="400" text-anchor="middle" class="label-bold" style="font-size:10px; fill:#ED8B00">- Test - workspace</text>
  <text x="650" y="416" text-anchor="middle" class="small" style="fill:#ED8B00">← Deployment Pipeline</text>

  <rect x="790" y="365" width="220" height="58" rx="8" fill="#fff" stroke="#107C10" stroke-width="1.5"/>
  <text x="900" y="386" text-anchor="middle" class="label" style="font-size:10px">OR Scheduling</text>
  <text x="900" y="400" text-anchor="middle" class="label-bold" style="font-size:10px; fill:#107C10">- Prod - workspace</text>
  <text x="900" y="416" text-anchor="middle" class="small" style="fill:#107C10">← Deployment Pipeline</text>

  <line x1="515" y1="394" x2="535" y2="394" stroke="#555" stroke-width="2" marker-end="url(#arr)"/>
  <line x1="765" y1="394" x2="785" y2="394" stroke="#555" stroke-width="2" marker-end="url(#arr)"/>

  <!-- CONSOLIDATED category -->
  <rect x="30" y="433" width="230" height="22" rx="4" fill="#FFF8E1"/>
  <text x="145" y="449" text-anchor="middle" class="label-bold" style="fill:#E65100; font-size:11px">CONSOLIDATED</text>

  <!-- Row 5: Consolidated -->
  <rect x="30" y="463" width="230" height="58" rx="8" fill="#FFF8E1" stroke="#F9A825" stroke-width="1.5"/>
  <text x="145" y="487" text-anchor="middle" class="label-bold" style="fill:#E65100">Consolidated</text>
  <text x="145" y="503" text-anchor="middle" class="small">Data + Visualization (self-contained)</text>

  <rect x="290" y="463" width="220" height="58" rx="8" fill="#fff" stroke="#0078D4" stroke-width="1.5"/>
  <text x="400" y="484" text-anchor="middle" class="label" style="font-size:10px">Consolidated</text>
  <text x="400" y="498" text-anchor="middle" class="label-bold" style="font-size:10px; fill:#0078D4">- Dev - workspace</text>
  <text x="400" y="514" text-anchor="middle" class="small" style="fill:#0078D4">✓ Git Connected (main)</text>

  <rect x="540" y="463" width="220" height="58" rx="8" fill="#fff" stroke="#ED8B00" stroke-width="1.5"/>
  <text x="650" y="484" text-anchor="middle" class="label" style="font-size:10px">Consolidated</text>
  <text x="650" y="498" text-anchor="middle" class="label-bold" style="font-size:10px; fill:#ED8B00">- Test - workspace</text>
  <text x="650" y="514" text-anchor="middle" class="small" style="fill:#ED8B00">← Deployment Pipeline</text>

  <rect x="790" y="463" width="220" height="58" rx="8" fill="#fff" stroke="#107C10" stroke-width="1.5"/>
  <text x="900" y="484" text-anchor="middle" class="label" style="font-size:10px">Consolidated</text>
  <text x="900" y="498" text-anchor="middle" class="label-bold" style="font-size:10px; fill:#107C10">- Prod - workspace</text>
  <text x="900" y="514" text-anchor="middle" class="small" style="fill:#107C10">← Deployment Pipeline</text>

  <line x1="515" y1="492" x2="535" y2="492" stroke="#555" stroke-width="2" marker-end="url(#arr)"/>
  <line x1="765" y1="492" x2="785" y2="492" stroke="#555" stroke-width="2" marker-end="url(#arr)"/>

  <!-- Azure DevOps Repos Section -->
  <rect x="30" y="545" width="1040" height="340" rx="10" fill="#EBF3FB" stroke="#0078D4" stroke-width="1.5"/>
  <rect x="30" y="545" width="1040" height="32" rx="10" fill="#0078D4"/>
  <rect x="30" y="569" width="1040" height="8" fill="#0078D4"/>
  <text x="550" y="567" text-anchor="middle" class="header-text">Azure DevOps Repositories</text>

  <rect x="55" y="593" width="470" height="95" rx="8" fill="#fff" stroke="#0078D4" stroke-width="1.5"/>
  <text x="290" y="613" text-anchor="middle" class="label-bold" style="fill:#0078D4; font-size:12px;">epic-shared-repo</text>
  <line x1="70" y1="620" x2="510" y2="620" stroke="#e0e0e0" stroke-width="1"/>
  <text x="75" y="635" class="small">● main → Epic - shared - Dev - workspace</text>
  <text x="75" y="650" class="small">○ feature/add-epic-connection</text>
  <text x="75" y="665" class="small">○ feature/update-lakehouse-schema</text>
  <text x="75" y="680" class="small" style="font-style:italic; font-size:9px;">Consumed by: Blood Utilization, OR Scheduling</text>

  <rect x="555" y="593" width="470" height="95" rx="8" fill="#fff" stroke="#3949AB" stroke-width="1.5"/>
  <text x="790" y="613" text-anchor="middle" class="label-bold" style="fill:#3949AB; font-size:12px;">sql-shared-repo</text>
  <line x1="570" y1="620" x2="1010" y2="620" stroke="#e0e0e0" stroke-width="1"/>
  <text x="575" y="635" class="small">● main → SQL - Shared - Dev - workspace</text>
  <text x="575" y="650" class="small">○ feature/add-sql-connection</text>
  <text x="575" y="665" class="small">○ feature/update-stored-procs</text>
  <text x="575" y="680" class="small" style="font-style:italic; font-size:9px;">Consumed by: Blood Utilization, OR Scheduling</text>

  <rect x="55" y="703" width="470" height="80" rx="8" fill="#fff" stroke="#E8590C" stroke-width="1.5"/>
  <text x="290" y="723" text-anchor="middle" class="label-bold" style="fill:#E8590C; font-size:12px;">blood-utilization-repo</text>
  <line x1="70" y1="730" x2="510" y2="730" stroke="#e0e0e0" stroke-width="1"/>
  <text x="75" y="745" class="small">● main → Blood Utilization - Dev - workspace</text>
  <text x="75" y="760" class="small">○ feature/add-blood-type-filter</text>
  <text x="75" y="775" class="small">○ feature/update-utilization-report</text>

  <rect x="555" y="703" width="470" height="80" rx="8" fill="#fff" stroke="#7B2D8E" stroke-width="1.5"/>
  <text x="790" y="723" text-anchor="middle" class="label-bold" style="fill:#7B2D8E; font-size:12px;">or-scheduling-repo</text>
  <line x1="570" y1="730" x2="1010" y2="730" stroke="#e0e0e0" stroke-width="1"/>
  <text x="575" y="745" class="small">● main → OR Scheduling - Dev - workspace</text>
  <text x="575" y="760" class="small">○ feature/update-or-dashboard</text>
  <text x="575" y="775" class="small">○ feature/add-scheduling-model</text>

  <rect x="290" y="798" width="520" height="80" rx="8" fill="#fff" stroke="#F9A825" stroke-width="1.5"/>
  <text x="550" y="818" text-anchor="middle" class="label-bold" style="fill:#E65100; font-size:12px;">consolidated-repo</text>
  <line x1="305" y1="825" x2="795" y2="825" stroke="#e0e0e0" stroke-width="1"/>
  <text x="305" y="840" class="small">● main → Consolidated - Dev - workspace</text>
  <text x="305" y="855" class="small">○ feature/add-unified-dashboard</text>
  <text x="305" y="870" class="small">○ feature/import-shared-data</text>

  </g>
</svg>